<?xml version="1.0" encoding="UTF-8"?>
<svg width="26.458mm" height="13.229mm" version="1.1" viewBox="0 0 26.458 13.229" xmlns="http://www.w3.org/2000/svg">
 <g transform="translate(-35.758 -58.723)">
  <path d="m58.788 71.952v-9.1715c0-0.1778-0.06985-0.32385-0.20955-0.43815-0.1524-0.1143-0.33655-0.17145-0.55245-0.17145h-0.038c-0.2032 0-0.37465 0.05715-0.51435 0.17145-0.1524 0.1143-0.2286 0.26035-0.2286 0.43815v4.7329c0 0.8255-0.12065 1.5176-0.36195 2.0764-0.254 0.5588-0.57785 1.016-0.97155 1.3716s-0.8382 0.6096-1.3335 0.762c-0.508 0.1524-1.016 0.2286-1.524 0.2286-0.5461 0-1.0668-0.08255-1.5621-0.24764-0.508-0.1651-0.9525-0.42545-1.3335-0.78105-0.381-0.3556-0.67945-0.8128-0.89535-1.3716-0.2286-0.5715-0.27525-1.2509-0.27525-2.0383v-8.7905h3.3613v9.1144c0 0.1905 0.0762 0.3556 0.2286 0.4953 0.1397 0.127 0.31115 0.1905 0.51435 0.1905s0.37465-0.0635 0.51435-0.1905c0.1397-0.1397 0.20955-0.31115 0.20955-0.51435v-4.6757c0-1.3843 0.34925-2.4638 1.0478-3.2385 0.6985-0.7874 1.7526-1.1811 3.1623-1.1811 1.3843 0 2.432 0.38735 3.1432 1.162 0.6985 0.7747 1.0476 1.8732 1.0476 3.2956v8.7715zm-23.029-3.429h9.1715c0.1778 0 0.32385-0.06985 0.43815-0.20955 0.1143-0.1524 0.17145-0.33655 0.17145-0.55245v-0.038c0-0.2032-0.05715-0.37465-0.17145-0.51435-0.1143-0.1524-0.26035-0.2286-0.43815-0.2286h-4.7328c-0.8255 0-1.5176-0.12065-2.0764-0.36195-0.5588-0.254-1.016-0.57785-1.3716-0.97155-0.3556-0.3937-0.6096-0.8382-0.762-1.3335-0.1524-0.508-0.2286-1.016-0.2286-1.524 0-0.5461 0.08255-1.0668 0.24765-1.5621 0.1651-0.508 0.42545-0.9525 0.78105-1.3335s0.8128-0.67945 1.3716-0.89535c0.5715-0.2286 1.2509-0.27525 2.0383-0.27525h8.7905v3.3613h-9.1144c-0.1905 0-0.3556 0.0762-0.4953 0.2286-0.127 0.1397-0.1905 0.31115-0.1905 0.51435s0.0635 0.37465 0.1905 0.51435c0.1397 0.1397 0.31115 0.20955 0.51435 0.20955h4.6757c1.3843 0 2.4638 0.34925 3.2385 1.0477 0.7874 0.6985 1.1811 1.7526 1.1811 3.1623 0 1.3843-0.38735 2.432-1.162 3.1432-0.7747 0.6985-1.8732 1.0476-3.2956 1.0476h-8.7715z" stroke-width=".13229"/>
 </g>
</svg>
